<mxfile host="Electron" agent="Mozilla/5.0 (Windows NT 10.0; Win64; x64) AppleWebKit/537.36 (KHTML, like Gecko) draw.io/27.0.9 Chrome/134.0.6998.205 Electron/35.4.0 Safari/537.36" version="27.0.9" pages="3">
  <diagram id="LCHwBQlNh8Vgme6ZbI-Y" name="MER 1">
    <mxGraphModel dx="1278" dy="618" grid="0" gridSize="10" guides="1" tooltips="1" connect="1" arrows="1" fold="1" page="0" pageScale="1" pageWidth="3300" pageHeight="2339" math="0" shadow="0">
      <root>
        <mxCell id="0" />
        <mxCell id="1" parent="0" />
        <mxCell id="iptCe_9q5392KeY6W5Uu-12" value="cdr" style="shape=table;startSize=30;container=1;collapsible=1;childLayout=tableLayout;fixedRows=1;rowLines=0;fontStyle=1;align=center;resizeLast=1;html=1;" parent="1" vertex="1">
          <mxGeometry x="50" y="127" width="268" height="357.0714416503906" as="geometry">
            <mxRectangle x="50" y="127" width="52" height="30" as="alternateBounds" />
          </mxGeometry>
        </mxCell>
        <mxCell id="iptCe_9q5392KeY6W5Uu-13" value="" style="shape=tableRow;horizontal=0;startSize=0;swimlaneHead=0;swimlaneBody=0;fillColor=none;collapsible=0;dropTarget=0;points=[[0,0.5],[1,0.5]];portConstraint=eastwest;top=0;left=0;right=0;bottom=1;" parent="iptCe_9q5392KeY6W5Uu-12" vertex="1">
          <mxGeometry y="30" width="268" height="27" as="geometry" />
        </mxCell>
        <mxCell id="iptCe_9q5392KeY6W5Uu-14" value="PK" style="shape=partialRectangle;connectable=0;fillColor=none;top=0;left=0;bottom=0;right=0;fontStyle=1;overflow=hidden;whiteSpace=wrap;html=1;" parent="iptCe_9q5392KeY6W5Uu-13" vertex="1">
          <mxGeometry width="40.607177734375" height="27" as="geometry">
            <mxRectangle width="40.607177734375" height="27" as="alternateBounds" />
          </mxGeometry>
        </mxCell>
        <mxCell id="iptCe_9q5392KeY6W5Uu-15" value="id INT" style="shape=partialRectangle;connectable=0;fillColor=none;top=0;left=0;bottom=0;right=0;align=left;spacingLeft=6;fontStyle=5;overflow=hidden;whiteSpace=wrap;html=1;" parent="iptCe_9q5392KeY6W5Uu-13" vertex="1">
          <mxGeometry x="40.607177734375" width="227.392822265625" height="27" as="geometry">
            <mxRectangle width="227.392822265625" height="27" as="alternateBounds" />
          </mxGeometry>
        </mxCell>
        <mxCell id="iptCe_9q5392KeY6W5Uu-82" value="" style="shape=tableRow;horizontal=0;startSize=0;swimlaneHead=0;swimlaneBody=0;fillColor=none;collapsible=0;dropTarget=0;points=[[0,0.5],[1,0.5]];portConstraint=eastwest;top=0;left=0;right=0;bottom=0;" parent="iptCe_9q5392KeY6W5Uu-12" vertex="1">
          <mxGeometry y="57" width="268" height="30" as="geometry" />
        </mxCell>
        <mxCell id="iptCe_9q5392KeY6W5Uu-83" value="FK1" style="shape=partialRectangle;connectable=0;fillColor=none;top=0;left=0;bottom=0;right=0;editable=1;overflow=hidden;" parent="iptCe_9q5392KeY6W5Uu-82" vertex="1">
          <mxGeometry width="40.607177734375" height="30" as="geometry">
            <mxRectangle width="40.607177734375" height="30" as="alternateBounds" />
          </mxGeometry>
        </mxCell>
        <mxCell id="iptCe_9q5392KeY6W5Uu-84" value="accountcode INT(9)" style="shape=partialRectangle;connectable=0;fillColor=none;top=0;left=0;bottom=0;right=0;align=left;spacingLeft=6;overflow=hidden;" parent="iptCe_9q5392KeY6W5Uu-82" vertex="1">
          <mxGeometry x="40.607177734375" width="227.392822265625" height="30" as="geometry">
            <mxRectangle width="227.392822265625" height="30" as="alternateBounds" />
          </mxGeometry>
        </mxCell>
        <mxCell id="iptCe_9q5392KeY6W5Uu-16" value="" style="shape=tableRow;horizontal=0;startSize=0;swimlaneHead=0;swimlaneBody=0;fillColor=none;collapsible=0;dropTarget=0;points=[[0,0.5],[1,0.5]];portConstraint=eastwest;top=0;left=0;right=0;bottom=0;" parent="iptCe_9q5392KeY6W5Uu-12" vertex="1">
          <mxGeometry y="87" width="268" height="30" as="geometry" />
        </mxCell>
        <mxCell id="iptCe_9q5392KeY6W5Uu-17" value="" style="shape=partialRectangle;connectable=0;fillColor=none;top=0;left=0;bottom=0;right=0;editable=1;overflow=hidden;whiteSpace=wrap;html=1;" parent="iptCe_9q5392KeY6W5Uu-16" vertex="1">
          <mxGeometry width="40.607177734375" height="30" as="geometry">
            <mxRectangle width="40.607177734375" height="30" as="alternateBounds" />
          </mxGeometry>
        </mxCell>
        <mxCell id="iptCe_9q5392KeY6W5Uu-18" value="idramal INT(9)" style="shape=partialRectangle;connectable=0;fillColor=none;top=0;left=0;bottom=0;right=0;align=left;spacingLeft=6;overflow=hidden;whiteSpace=wrap;html=1;" parent="iptCe_9q5392KeY6W5Uu-16" vertex="1">
          <mxGeometry x="40.607177734375" width="227.392822265625" height="30" as="geometry">
            <mxRectangle width="227.392822265625" height="30" as="alternateBounds" />
          </mxGeometry>
        </mxCell>
        <mxCell id="iptCe_9q5392KeY6W5Uu-19" value="" style="shape=tableRow;horizontal=0;startSize=0;swimlaneHead=0;swimlaneBody=0;fillColor=none;collapsible=0;dropTarget=0;points=[[0,0.5],[1,0.5]];portConstraint=eastwest;top=0;left=0;right=0;bottom=0;" parent="iptCe_9q5392KeY6W5Uu-12" vertex="1">
          <mxGeometry y="117" width="268" height="30" as="geometry" />
        </mxCell>
        <mxCell id="iptCe_9q5392KeY6W5Uu-20" value="" style="shape=partialRectangle;connectable=0;fillColor=none;top=0;left=0;bottom=0;right=0;editable=1;overflow=hidden;whiteSpace=wrap;html=1;" parent="iptCe_9q5392KeY6W5Uu-19" vertex="1">
          <mxGeometry width="40.607177734375" height="30" as="geometry">
            <mxRectangle width="40.607177734375" height="30" as="alternateBounds" />
          </mxGeometry>
        </mxCell>
        <mxCell id="iptCe_9q5392KeY6W5Uu-21" value="calldate DATE" style="shape=partialRectangle;connectable=0;fillColor=none;top=0;left=0;bottom=0;right=0;align=left;spacingLeft=6;overflow=hidden;whiteSpace=wrap;html=1;" parent="iptCe_9q5392KeY6W5Uu-19" vertex="1">
          <mxGeometry x="40.607177734375" width="227.392822265625" height="30" as="geometry">
            <mxRectangle width="227.392822265625" height="30" as="alternateBounds" />
          </mxGeometry>
        </mxCell>
        <mxCell id="iptCe_9q5392KeY6W5Uu-22" value="" style="shape=tableRow;horizontal=0;startSize=0;swimlaneHead=0;swimlaneBody=0;fillColor=none;collapsible=0;dropTarget=0;points=[[0,0.5],[1,0.5]];portConstraint=eastwest;top=0;left=0;right=0;bottom=0;" parent="iptCe_9q5392KeY6W5Uu-12" vertex="1">
          <mxGeometry y="147" width="268" height="30" as="geometry" />
        </mxCell>
        <mxCell id="iptCe_9q5392KeY6W5Uu-23" value="" style="shape=partialRectangle;connectable=0;fillColor=none;top=0;left=0;bottom=0;right=0;editable=1;overflow=hidden;whiteSpace=wrap;html=1;" parent="iptCe_9q5392KeY6W5Uu-22" vertex="1">
          <mxGeometry width="40.607177734375" height="30" as="geometry">
            <mxRectangle width="40.607177734375" height="30" as="alternateBounds" />
          </mxGeometry>
        </mxCell>
        <mxCell id="iptCe_9q5392KeY6W5Uu-24" value="src VARCHAR(10&lt;span style=&quot;background-color: transparent; color: light-dark(rgb(0, 0, 0), rgb(255, 255, 255));&quot;&gt;)&lt;/span&gt;" style="shape=partialRectangle;connectable=0;fillColor=none;top=0;left=0;bottom=0;right=0;align=left;spacingLeft=6;overflow=hidden;whiteSpace=wrap;html=1;" parent="iptCe_9q5392KeY6W5Uu-22" vertex="1">
          <mxGeometry x="40.607177734375" width="227.392822265625" height="30" as="geometry">
            <mxRectangle width="227.392822265625" height="30" as="alternateBounds" />
          </mxGeometry>
        </mxCell>
        <mxCell id="iptCe_9q5392KeY6W5Uu-26" value="" style="shape=tableRow;horizontal=0;startSize=0;swimlaneHead=0;swimlaneBody=0;fillColor=none;collapsible=0;dropTarget=0;points=[[0,0.5],[1,0.5]];portConstraint=eastwest;top=0;left=0;right=0;bottom=0;" parent="iptCe_9q5392KeY6W5Uu-12" vertex="1">
          <mxGeometry y="177" width="268" height="30" as="geometry" />
        </mxCell>
        <mxCell id="iptCe_9q5392KeY6W5Uu-27" value="" style="shape=partialRectangle;connectable=0;fillColor=none;top=0;left=0;bottom=0;right=0;editable=1;overflow=hidden;" parent="iptCe_9q5392KeY6W5Uu-26" vertex="1">
          <mxGeometry width="40.607177734375" height="30" as="geometry">
            <mxRectangle width="40.607177734375" height="30" as="alternateBounds" />
          </mxGeometry>
        </mxCell>
        <mxCell id="iptCe_9q5392KeY6W5Uu-28" value="dst VARCHAR(10)" style="shape=partialRectangle;connectable=0;fillColor=none;top=0;left=0;bottom=0;right=0;align=left;spacingLeft=6;overflow=hidden;" parent="iptCe_9q5392KeY6W5Uu-26" vertex="1">
          <mxGeometry x="40.607177734375" width="227.392822265625" height="30" as="geometry">
            <mxRectangle width="227.392822265625" height="30" as="alternateBounds" />
          </mxGeometry>
        </mxCell>
        <mxCell id="iptCe_9q5392KeY6W5Uu-32" value="" style="shape=tableRow;horizontal=0;startSize=0;swimlaneHead=0;swimlaneBody=0;fillColor=none;collapsible=0;dropTarget=0;points=[[0,0.5],[1,0.5]];portConstraint=eastwest;top=0;left=0;right=0;bottom=0;" parent="iptCe_9q5392KeY6W5Uu-12" vertex="1">
          <mxGeometry y="207" width="268" height="30" as="geometry" />
        </mxCell>
        <mxCell id="iptCe_9q5392KeY6W5Uu-33" value="" style="shape=partialRectangle;connectable=0;fillColor=none;top=0;left=0;bottom=0;right=0;editable=1;overflow=hidden;" parent="iptCe_9q5392KeY6W5Uu-32" vertex="1">
          <mxGeometry width="40.607177734375" height="30" as="geometry">
            <mxRectangle width="40.607177734375" height="30" as="alternateBounds" />
          </mxGeometry>
        </mxCell>
        <mxCell id="iptCe_9q5392KeY6W5Uu-34" value="tipo INT(1)" style="shape=partialRectangle;connectable=0;fillColor=none;top=0;left=0;bottom=0;right=0;align=left;spacingLeft=6;overflow=hidden;" parent="iptCe_9q5392KeY6W5Uu-32" vertex="1">
          <mxGeometry x="40.607177734375" width="227.392822265625" height="30" as="geometry">
            <mxRectangle width="227.392822265625" height="30" as="alternateBounds" />
          </mxGeometry>
        </mxCell>
        <mxCell id="iptCe_9q5392KeY6W5Uu-35" value="" style="shape=tableRow;horizontal=0;startSize=0;swimlaneHead=0;swimlaneBody=0;fillColor=none;collapsible=0;dropTarget=0;points=[[0,0.5],[1,0.5]];portConstraint=eastwest;top=0;left=0;right=0;bottom=0;" parent="iptCe_9q5392KeY6W5Uu-12" vertex="1">
          <mxGeometry y="237" width="268" height="30" as="geometry" />
        </mxCell>
        <mxCell id="iptCe_9q5392KeY6W5Uu-36" value="FK2" style="shape=partialRectangle;connectable=0;fillColor=none;top=0;left=0;bottom=0;right=0;editable=1;overflow=hidden;" parent="iptCe_9q5392KeY6W5Uu-35" vertex="1">
          <mxGeometry width="40.607177734375" height="30" as="geometry">
            <mxRectangle width="40.607177734375" height="30" as="alternateBounds" />
          </mxGeometry>
        </mxCell>
        <mxCell id="iptCe_9q5392KeY6W5Uu-37" value="centrodecusto" style="shape=partialRectangle;connectable=0;fillColor=none;top=0;left=0;bottom=0;right=0;align=left;spacingLeft=6;overflow=hidden;" parent="iptCe_9q5392KeY6W5Uu-35" vertex="1">
          <mxGeometry x="40.607177734375" width="227.392822265625" height="30" as="geometry">
            <mxRectangle width="227.392822265625" height="30" as="alternateBounds" />
          </mxGeometry>
        </mxCell>
        <mxCell id="iptCe_9q5392KeY6W5Uu-38" value="" style="shape=tableRow;horizontal=0;startSize=0;swimlaneHead=0;swimlaneBody=0;fillColor=none;collapsible=0;dropTarget=0;points=[[0,0.5],[1,0.5]];portConstraint=eastwest;top=0;left=0;right=0;bottom=0;" parent="iptCe_9q5392KeY6W5Uu-12" vertex="1">
          <mxGeometry y="267" width="268" height="30" as="geometry" />
        </mxCell>
        <mxCell id="iptCe_9q5392KeY6W5Uu-39" value="" style="shape=partialRectangle;connectable=0;fillColor=none;top=0;left=0;bottom=0;right=0;editable=1;overflow=hidden;" parent="iptCe_9q5392KeY6W5Uu-38" vertex="1">
          <mxGeometry width="40.607177734375" height="30" as="geometry">
            <mxRectangle width="40.607177734375" height="30" as="alternateBounds" />
          </mxGeometry>
        </mxCell>
        <mxCell id="iptCe_9q5392KeY6W5Uu-40" value="disposition BOOL" style="shape=partialRectangle;connectable=0;fillColor=none;top=0;left=0;bottom=0;right=0;align=left;spacingLeft=6;overflow=hidden;" parent="iptCe_9q5392KeY6W5Uu-38" vertex="1">
          <mxGeometry x="40.607177734375" width="227.392822265625" height="30" as="geometry">
            <mxRectangle width="227.392822265625" height="30" as="alternateBounds" />
          </mxGeometry>
        </mxCell>
        <mxCell id="iptCe_9q5392KeY6W5Uu-41" value="" style="shape=tableRow;horizontal=0;startSize=0;swimlaneHead=0;swimlaneBody=0;fillColor=none;collapsible=0;dropTarget=0;points=[[0,0.5],[1,0.5]];portConstraint=eastwest;top=0;left=0;right=0;bottom=0;" parent="iptCe_9q5392KeY6W5Uu-12" vertex="1">
          <mxGeometry y="297" width="268" height="30" as="geometry" />
        </mxCell>
        <mxCell id="iptCe_9q5392KeY6W5Uu-42" value="" style="shape=partialRectangle;connectable=0;fillColor=none;top=0;left=0;bottom=0;right=0;editable=1;overflow=hidden;" parent="iptCe_9q5392KeY6W5Uu-41" vertex="1">
          <mxGeometry width="40.607177734375" height="30" as="geometry">
            <mxRectangle width="40.607177734375" height="30" as="alternateBounds" />
          </mxGeometry>
        </mxCell>
        <mxCell id="iptCe_9q5392KeY6W5Uu-43" value="billsec INT" style="shape=partialRectangle;connectable=0;fillColor=none;top=0;left=0;bottom=0;right=0;align=left;spacingLeft=6;overflow=hidden;" parent="iptCe_9q5392KeY6W5Uu-41" vertex="1">
          <mxGeometry x="40.607177734375" width="227.392822265625" height="30" as="geometry">
            <mxRectangle width="227.392822265625" height="30" as="alternateBounds" />
          </mxGeometry>
        </mxCell>
        <mxCell id="iptCe_9q5392KeY6W5Uu-44" value="" style="shape=tableRow;horizontal=0;startSize=0;swimlaneHead=0;swimlaneBody=0;fillColor=none;collapsible=0;dropTarget=0;points=[[0,0.5],[1,0.5]];portConstraint=eastwest;top=0;left=0;right=0;bottom=0;" parent="iptCe_9q5392KeY6W5Uu-12" vertex="1">
          <mxGeometry y="327" width="268" height="30" as="geometry" />
        </mxCell>
        <mxCell id="iptCe_9q5392KeY6W5Uu-45" value="" style="shape=partialRectangle;connectable=0;fillColor=none;top=0;left=0;bottom=0;right=0;editable=1;overflow=hidden;" parent="iptCe_9q5392KeY6W5Uu-44" vertex="1">
          <mxGeometry width="40.607177734375" height="30" as="geometry">
            <mxRectangle width="40.607177734375" height="30" as="alternateBounds" />
          </mxGeometry>
        </mxCell>
        <mxCell id="iptCe_9q5392KeY6W5Uu-46" value="arquivo VARCHAR(64)" style="shape=partialRectangle;connectable=0;fillColor=none;top=0;left=0;bottom=0;right=0;align=left;spacingLeft=6;overflow=hidden;" parent="iptCe_9q5392KeY6W5Uu-44" vertex="1">
          <mxGeometry x="40.607177734375" width="227.392822265625" height="30" as="geometry">
            <mxRectangle width="227.392822265625" height="30" as="alternateBounds" />
          </mxGeometry>
        </mxCell>
        <mxCell id="iptCe_9q5392KeY6W5Uu-53" value="centrodecusto" style="shape=table;startSize=30;container=1;collapsible=1;childLayout=tableLayout;fixedRows=1;rowLines=0;fontStyle=1;align=center;resizeLast=1;html=1;" parent="1" vertex="1">
          <mxGeometry x="389" y="401" width="225" height="77" as="geometry" />
        </mxCell>
        <mxCell id="iptCe_9q5392KeY6W5Uu-57" value="" style="shape=tableRow;horizontal=0;startSize=0;swimlaneHead=0;swimlaneBody=0;fillColor=none;collapsible=0;dropTarget=0;points=[[0,0.5],[1,0.5]];portConstraint=eastwest;top=0;left=0;right=0;bottom=0;" parent="iptCe_9q5392KeY6W5Uu-53" vertex="1">
          <mxGeometry y="30" width="225" height="47" as="geometry" />
        </mxCell>
        <mxCell id="iptCe_9q5392KeY6W5Uu-58" value="" style="shape=partialRectangle;connectable=0;fillColor=none;top=0;left=0;bottom=0;right=0;editable=1;overflow=hidden;whiteSpace=wrap;html=1;" parent="iptCe_9q5392KeY6W5Uu-57" vertex="1">
          <mxGeometry width="30" height="47" as="geometry">
            <mxRectangle width="30" height="47" as="alternateBounds" />
          </mxGeometry>
        </mxCell>
        <mxCell id="iptCe_9q5392KeY6W5Uu-59" value="Item externo dependente do sistema de Centro de Custo da empresa (caso houver)" style="shape=partialRectangle;connectable=0;fillColor=none;top=0;left=0;bottom=0;right=0;align=left;spacingLeft=6;overflow=hidden;whiteSpace=wrap;html=1;" parent="iptCe_9q5392KeY6W5Uu-57" vertex="1">
          <mxGeometry x="30" width="195" height="47" as="geometry">
            <mxRectangle width="195" height="47" as="alternateBounds" />
          </mxGeometry>
        </mxCell>
        <mxCell id="iptCe_9q5392KeY6W5Uu-66" style="edgeStyle=orthogonalEdgeStyle;rounded=0;orthogonalLoop=1;jettySize=auto;html=1;entryX=0;entryY=0.5;entryDx=0;entryDy=0;fontSize=12;startSize=8;endSize=8;endArrow=none;startFill=0;exitX=1;exitY=0.5;exitDx=0;exitDy=0;" parent="1" source="iptCe_9q5392KeY6W5Uu-35" target="iptCe_9q5392KeY6W5Uu-53" edge="1">
          <mxGeometry relative="1" as="geometry" />
        </mxCell>
        <mxCell id="iptCe_9q5392KeY6W5Uu-90" value="&lt;b&gt;accountcode &lt;/b&gt;e &lt;b&gt;idramal &lt;/b&gt;ambos são números de&amp;nbsp;Rede Telefônica Privada (PBX)&lt;div&gt;&lt;br&gt;&lt;/div&gt;&lt;div&gt;&lt;div style=&quot;&quot;&gt;&lt;b&gt;src&lt;/b&gt;&amp;nbsp;e &lt;b&gt;dst&lt;/b&gt;&amp;nbsp;ambos são números de telefone&lt;/div&gt;&lt;div style=&quot;&quot;&gt;&lt;br&gt;&lt;/div&gt;&lt;div style=&quot;&quot;&gt;&lt;b&gt;tipo&lt;/b&gt;&amp;nbsp;adota 3 valores:&lt;br&gt;&lt;b&gt;0&lt;/b&gt;: ENTRADA&lt;/div&gt;&lt;div style=&quot;&quot;&gt;&lt;b&gt;1&lt;/b&gt;: INTERNO&lt;/div&gt;&lt;div style=&quot;&quot;&gt;&lt;b&gt;2&lt;/b&gt;: SAIDA&lt;/div&gt;&lt;div&gt;&lt;br&gt;&lt;/div&gt;&lt;/div&gt;" style="shape=note;whiteSpace=wrap;html=1;backgroundOutline=1;darkOpacity=0.05;align=left;verticalAlign=bottom;spacingLeft=5;" parent="1" vertex="1">
          <mxGeometry x="361" y="134" width="224" height="209" as="geometry" />
        </mxCell>
        <mxCell id="aGysRV_mhtRJOdo6gemg-48" style="edgeStyle=orthogonalEdgeStyle;rounded=0;orthogonalLoop=1;jettySize=auto;html=1;entryX=0;entryY=0.5;entryDx=0;entryDy=0;fontSize=12;startSize=8;endSize=8;endArrow=none;startFill=0;" edge="1" parent="1" source="aGysRV_mhtRJOdo6gemg-35" target="iptCe_9q5392KeY6W5Uu-82">
          <mxGeometry relative="1" as="geometry" />
        </mxCell>
        <mxCell id="aGysRV_mhtRJOdo6gemg-66" style="edgeStyle=orthogonalEdgeStyle;rounded=0;orthogonalLoop=1;jettySize=auto;html=1;entryX=0;entryY=0.5;entryDx=0;entryDy=0;fontSize=12;startSize=8;endSize=8;endArrow=none;startFill=0;" edge="1" parent="1" source="aGysRV_mhtRJOdo6gemg-35" target="aGysRV_mhtRJOdo6gemg-53">
          <mxGeometry relative="1" as="geometry">
            <Array as="points">
              <mxPoint x="-105" y="271" />
              <mxPoint x="-221" y="271" />
              <mxPoint x="-221" y="363" />
            </Array>
          </mxGeometry>
        </mxCell>
        <mxCell id="aGysRV_mhtRJOdo6gemg-35" value="account" style="shape=table;startSize=30;container=1;collapsible=1;childLayout=tableLayout;fixedRows=1;rowLines=0;fontStyle=1;align=center;resizeLast=1;html=1;" vertex="1" parent="1">
          <mxGeometry x="-201" y="127" width="191" height="120" as="geometry" />
        </mxCell>
        <mxCell id="aGysRV_mhtRJOdo6gemg-36" value="" style="shape=tableRow;horizontal=0;startSize=0;swimlaneHead=0;swimlaneBody=0;fillColor=none;collapsible=0;dropTarget=0;points=[[0,0.5],[1,0.5]];portConstraint=eastwest;top=0;left=0;right=0;bottom=1;" vertex="1" parent="aGysRV_mhtRJOdo6gemg-35">
          <mxGeometry y="30" width="191" height="30" as="geometry" />
        </mxCell>
        <mxCell id="aGysRV_mhtRJOdo6gemg-37" value="PK" style="shape=partialRectangle;connectable=0;fillColor=none;top=0;left=0;bottom=0;right=0;fontStyle=1;overflow=hidden;whiteSpace=wrap;html=1;" vertex="1" parent="aGysRV_mhtRJOdo6gemg-36">
          <mxGeometry width="30" height="30" as="geometry">
            <mxRectangle width="30" height="30" as="alternateBounds" />
          </mxGeometry>
        </mxCell>
        <mxCell id="aGysRV_mhtRJOdo6gemg-38" value="accountcode INT(9)" style="shape=partialRectangle;connectable=0;fillColor=none;top=0;left=0;bottom=0;right=0;align=left;spacingLeft=6;fontStyle=5;overflow=hidden;whiteSpace=wrap;html=1;" vertex="1" parent="aGysRV_mhtRJOdo6gemg-36">
          <mxGeometry x="30" width="161" height="30" as="geometry">
            <mxRectangle width="161" height="30" as="alternateBounds" />
          </mxGeometry>
        </mxCell>
        <mxCell id="aGysRV_mhtRJOdo6gemg-39" value="" style="shape=tableRow;horizontal=0;startSize=0;swimlaneHead=0;swimlaneBody=0;fillColor=none;collapsible=0;dropTarget=0;points=[[0,0.5],[1,0.5]];portConstraint=eastwest;top=0;left=0;right=0;bottom=0;" vertex="1" parent="aGysRV_mhtRJOdo6gemg-35">
          <mxGeometry y="60" width="191" height="30" as="geometry" />
        </mxCell>
        <mxCell id="aGysRV_mhtRJOdo6gemg-40" value="" style="shape=partialRectangle;connectable=0;fillColor=none;top=0;left=0;bottom=0;right=0;editable=1;overflow=hidden;whiteSpace=wrap;html=1;" vertex="1" parent="aGysRV_mhtRJOdo6gemg-39">
          <mxGeometry width="30" height="30" as="geometry">
            <mxRectangle width="30" height="30" as="alternateBounds" />
          </mxGeometry>
        </mxCell>
        <mxCell id="aGysRV_mhtRJOdo6gemg-41" value="nome VARCHAR(20)" style="shape=partialRectangle;connectable=0;fillColor=none;top=0;left=0;bottom=0;right=0;align=left;spacingLeft=6;overflow=hidden;whiteSpace=wrap;html=1;" vertex="1" parent="aGysRV_mhtRJOdo6gemg-39">
          <mxGeometry x="30" width="161" height="30" as="geometry">
            <mxRectangle width="161" height="30" as="alternateBounds" />
          </mxGeometry>
        </mxCell>
        <mxCell id="aGysRV_mhtRJOdo6gemg-42" value="" style="shape=tableRow;horizontal=0;startSize=0;swimlaneHead=0;swimlaneBody=0;fillColor=none;collapsible=0;dropTarget=0;points=[[0,0.5],[1,0.5]];portConstraint=eastwest;top=0;left=0;right=0;bottom=0;" vertex="1" parent="aGysRV_mhtRJOdo6gemg-35">
          <mxGeometry y="90" width="191" height="30" as="geometry" />
        </mxCell>
        <mxCell id="aGysRV_mhtRJOdo6gemg-43" value="" style="shape=partialRectangle;connectable=0;fillColor=none;top=0;left=0;bottom=0;right=0;editable=1;overflow=hidden;whiteSpace=wrap;html=1;" vertex="1" parent="aGysRV_mhtRJOdo6gemg-42">
          <mxGeometry width="30" height="30" as="geometry">
            <mxRectangle width="30" height="30" as="alternateBounds" />
          </mxGeometry>
        </mxCell>
        <mxCell id="aGysRV_mhtRJOdo6gemg-44" value="sobrenome VARCHAR(60)" style="shape=partialRectangle;connectable=0;fillColor=none;top=0;left=0;bottom=0;right=0;align=left;spacingLeft=6;overflow=hidden;whiteSpace=wrap;html=1;" vertex="1" parent="aGysRV_mhtRJOdo6gemg-42">
          <mxGeometry x="30" width="161" height="30" as="geometry">
            <mxRectangle width="161" height="30" as="alternateBounds" />
          </mxGeometry>
        </mxCell>
        <mxCell id="aGysRV_mhtRJOdo6gemg-49" value="chave" style="shape=table;startSize=30;container=1;collapsible=1;childLayout=tableLayout;fixedRows=1;rowLines=0;fontStyle=1;align=center;resizeLast=1;html=1;" vertex="1" parent="1">
          <mxGeometry x="-201" y="288" width="180" height="120" as="geometry" />
        </mxCell>
        <mxCell id="aGysRV_mhtRJOdo6gemg-50" value="" style="shape=tableRow;horizontal=0;startSize=0;swimlaneHead=0;swimlaneBody=0;fillColor=none;collapsible=0;dropTarget=0;points=[[0,0.5],[1,0.5]];portConstraint=eastwest;top=0;left=0;right=0;bottom=1;" vertex="1" parent="aGysRV_mhtRJOdo6gemg-49">
          <mxGeometry y="30" width="180" height="30" as="geometry" />
        </mxCell>
        <mxCell id="aGysRV_mhtRJOdo6gemg-51" value="PK" style="shape=partialRectangle;connectable=0;fillColor=none;top=0;left=0;bottom=0;right=0;fontStyle=1;overflow=hidden;whiteSpace=wrap;html=1;" vertex="1" parent="aGysRV_mhtRJOdo6gemg-50">
          <mxGeometry width="30" height="30" as="geometry">
            <mxRectangle width="30" height="30" as="alternateBounds" />
          </mxGeometry>
        </mxCell>
        <mxCell id="aGysRV_mhtRJOdo6gemg-52" value="id INT" style="shape=partialRectangle;connectable=0;fillColor=none;top=0;left=0;bottom=0;right=0;align=left;spacingLeft=6;fontStyle=5;overflow=hidden;whiteSpace=wrap;html=1;" vertex="1" parent="aGysRV_mhtRJOdo6gemg-50">
          <mxGeometry x="30" width="150" height="30" as="geometry">
            <mxRectangle width="150" height="30" as="alternateBounds" />
          </mxGeometry>
        </mxCell>
        <mxCell id="aGysRV_mhtRJOdo6gemg-53" value="" style="shape=tableRow;horizontal=0;startSize=0;swimlaneHead=0;swimlaneBody=0;fillColor=none;collapsible=0;dropTarget=0;points=[[0,0.5],[1,0.5]];portConstraint=eastwest;top=0;left=0;right=0;bottom=0;" vertex="1" parent="aGysRV_mhtRJOdo6gemg-49">
          <mxGeometry y="60" width="180" height="30" as="geometry" />
        </mxCell>
        <mxCell id="aGysRV_mhtRJOdo6gemg-54" value="FK" style="shape=partialRectangle;connectable=0;fillColor=none;top=0;left=0;bottom=0;right=0;editable=1;overflow=hidden;whiteSpace=wrap;html=1;" vertex="1" parent="aGysRV_mhtRJOdo6gemg-53">
          <mxGeometry width="30" height="30" as="geometry">
            <mxRectangle width="30" height="30" as="alternateBounds" />
          </mxGeometry>
        </mxCell>
        <mxCell id="aGysRV_mhtRJOdo6gemg-55" value="accountcode INT(9)" style="shape=partialRectangle;connectable=0;fillColor=none;top=0;left=0;bottom=0;right=0;align=left;spacingLeft=6;overflow=hidden;whiteSpace=wrap;html=1;" vertex="1" parent="aGysRV_mhtRJOdo6gemg-53">
          <mxGeometry x="30" width="150" height="30" as="geometry">
            <mxRectangle width="150" height="30" as="alternateBounds" />
          </mxGeometry>
        </mxCell>
        <mxCell id="aGysRV_mhtRJOdo6gemg-62" value="" style="shape=tableRow;horizontal=0;startSize=0;swimlaneHead=0;swimlaneBody=0;fillColor=none;collapsible=0;dropTarget=0;points=[[0,0.5],[1,0.5]];portConstraint=eastwest;top=0;left=0;right=0;bottom=0;" vertex="1" parent="aGysRV_mhtRJOdo6gemg-49">
          <mxGeometry y="90" width="180" height="30" as="geometry" />
        </mxCell>
        <mxCell id="aGysRV_mhtRJOdo6gemg-63" value="" style="shape=partialRectangle;connectable=0;fillColor=none;top=0;left=0;bottom=0;right=0;fontStyle=0;overflow=hidden;whiteSpace=wrap;html=1;" vertex="1" parent="aGysRV_mhtRJOdo6gemg-62">
          <mxGeometry width="30" height="30" as="geometry">
            <mxRectangle width="30" height="30" as="alternateBounds" />
          </mxGeometry>
        </mxCell>
        <mxCell id="aGysRV_mhtRJOdo6gemg-64" value="admin BOOL" style="shape=partialRectangle;connectable=0;fillColor=none;top=0;left=0;bottom=0;right=0;align=left;spacingLeft=6;fontStyle=0;overflow=hidden;whiteSpace=wrap;html=1;" vertex="1" parent="aGysRV_mhtRJOdo6gemg-62">
          <mxGeometry x="30" width="150" height="30" as="geometry">
            <mxRectangle width="150" height="30" as="alternateBounds" />
          </mxGeometry>
        </mxCell>
        <mxCell id="aGysRV_mhtRJOdo6gemg-65" value="&lt;b&gt;chave &lt;/b&gt;serve como uma identificação de supervisor/administrador para o sistema.&lt;div&gt;&lt;br&gt;&lt;/div&gt;&lt;div&gt;Cada um dos ambos terá uma chave criada em um banco de dados individual que permitirá algumas condições.&lt;/div&gt;" style="shape=note;whiteSpace=wrap;html=1;backgroundOutline=1;darkOpacity=0.05;align=left;verticalAlign=bottom;spacingLeft=5;spacingRight=8;spacingBottom=8;" vertex="1" parent="1">
          <mxGeometry x="-207" y="426" width="203" height="147" as="geometry" />
        </mxCell>
      </root>
    </mxGraphModel>
  </diagram>
  <diagram name="DER 1" id="BNk5RFfHtkvswEc0Ol9s">
    <mxGraphModel dx="1278" dy="618" grid="0" gridSize="10" guides="1" tooltips="1" connect="1" arrows="1" fold="1" page="0" pageScale="1" pageWidth="3300" pageHeight="2339" math="0" shadow="0">
      <root>
        <mxCell id="0" />
        <mxCell id="1" parent="0" />
        <mxCell id="P_fY0GC87L_X9JQZBcob-1" value="Actor" style="shape=umlActor;verticalLabelPosition=bottom;verticalAlign=top;html=1;outlineConnect=0;" parent="1" vertex="1">
          <mxGeometry x="-1" y="84" width="30" height="60" as="geometry" />
        </mxCell>
        <mxCell id="P_fY0GC87L_X9JQZBcob-2" value="Comum" style="shape=umlActor;verticalLabelPosition=bottom;verticalAlign=top;html=1;outlineConnect=0;" parent="1" vertex="1">
          <mxGeometry x="-70" y="201" width="30" height="60" as="geometry" />
        </mxCell>
        <mxCell id="P_fY0GC87L_X9JQZBcob-3" value="Supervisor" style="shape=umlActor;verticalLabelPosition=bottom;verticalAlign=top;html=1;outlineConnect=0;" parent="1" vertex="1">
          <mxGeometry x="-1" y="201" width="30" height="60" as="geometry" />
        </mxCell>
        <mxCell id="P_fY0GC87L_X9JQZBcob-4" value="Admin" style="shape=umlActor;verticalLabelPosition=bottom;verticalAlign=top;html=1;outlineConnect=0;" parent="1" vertex="1">
          <mxGeometry x="68" y="201" width="30" height="60" as="geometry" />
        </mxCell>
        <mxCell id="P_fY0GC87L_X9JQZBcob-8" style="edgeStyle=orthogonalEdgeStyle;rounded=0;orthogonalLoop=1;jettySize=auto;html=1;fontSize=12;startSize=8;endSize=8;entryX=0.5;entryY=0;entryDx=0;entryDy=0;entryPerimeter=0;" parent="1" target="P_fY0GC87L_X9JQZBcob-2" edge="1">
          <mxGeometry relative="1" as="geometry">
            <mxPoint x="-55" y="201" as="targetPoint" />
            <mxPoint x="14" y="165" as="sourcePoint" />
            <Array as="points">
              <mxPoint x="14" y="181" />
              <mxPoint x="-55" y="181" />
            </Array>
          </mxGeometry>
        </mxCell>
        <mxCell id="P_fY0GC87L_X9JQZBcob-10" style="edgeStyle=none;curved=1;rounded=0;orthogonalLoop=1;jettySize=auto;html=1;entryX=0.5;entryY=0;entryDx=0;entryDy=0;entryPerimeter=0;fontSize=12;startSize=8;endSize=8;" parent="1" target="P_fY0GC87L_X9JQZBcob-3" edge="1">
          <mxGeometry relative="1" as="geometry">
            <mxPoint x="14" y="168" as="sourcePoint" />
          </mxGeometry>
        </mxCell>
        <mxCell id="P_fY0GC87L_X9JQZBcob-11" style="edgeStyle=orthogonalEdgeStyle;rounded=0;orthogonalLoop=1;jettySize=auto;html=1;entryX=0.5;entryY=0;entryDx=0;entryDy=0;entryPerimeter=0;fontSize=12;startSize=8;endSize=8;" parent="1" edge="1">
          <mxGeometry relative="1" as="geometry">
            <mxPoint x="14" y="170" as="sourcePoint" />
            <mxPoint x="82.99999999999989" y="200" as="targetPoint" />
            <Array as="points">
              <mxPoint x="14" y="181" />
              <mxPoint x="83" y="181" />
            </Array>
          </mxGeometry>
        </mxCell>
        <mxCell id="P_fY0GC87L_X9JQZBcob-12" value="" style="rounded=0;whiteSpace=wrap;html=1;movable=0;resizable=0;rotatable=0;deletable=0;editable=0;locked=1;connectable=0;" parent="1" vertex="1">
          <mxGeometry x="127" y="22" width="767" height="739" as="geometry" />
        </mxCell>
        <mxCell id="P_fY0GC87L_X9JQZBcob-17" value="" style="edgeStyle=entityRelationEdgeStyle;rounded=0;orthogonalLoop=1;jettySize=auto;html=1;fontSize=12;startSize=8;endSize=8;endArrow=none;startFill=0;" parent="1" source="P_fY0GC87L_X9JQZBcob-13" target="P_fY0GC87L_X9JQZBcob-1" edge="1">
          <mxGeometry relative="1" as="geometry" />
        </mxCell>
        <mxCell id="P_fY0GC87L_X9JQZBcob-58" style="edgeStyle=none;curved=1;rounded=0;orthogonalLoop=1;jettySize=auto;html=1;fontSize=12;startSize=8;endSize=8;" parent="1" source="P_fY0GC87L_X9JQZBcob-13" target="P_fY0GC87L_X9JQZBcob-57" edge="1">
          <mxGeometry relative="1" as="geometry" />
        </mxCell>
        <mxCell id="P_fY0GC87L_X9JQZBcob-13" value="Login" style="ellipse;whiteSpace=wrap;html=1;" parent="1" vertex="1">
          <mxGeometry x="176" y="53" width="73" height="54" as="geometry" />
        </mxCell>
        <mxCell id="P_fY0GC87L_X9JQZBcob-21" style="rounded=0;orthogonalLoop=1;jettySize=auto;html=1;entryX=0.5;entryY=1;entryDx=0;entryDy=0;fontSize=12;startSize=8;endSize=8;dashed=1;exitX=0;exitY=0.5;exitDx=0;exitDy=0;edgeStyle=elbowEdgeStyle;elbow=vertical;dashPattern=8 8;" parent="1" source="P_fY0GC87L_X9JQZBcob-18" target="P_fY0GC87L_X9JQZBcob-13" edge="1">
          <mxGeometry relative="1" as="geometry">
            <Array as="points">
              <mxPoint x="213" y="128" />
              <mxPoint x="157" y="137" />
            </Array>
          </mxGeometry>
        </mxCell>
        <mxCell id="P_fY0GC87L_X9JQZBcob-23" style="edgeStyle=none;curved=1;rounded=0;orthogonalLoop=1;jettySize=auto;html=1;fontSize=12;startSize=8;endSize=8;" parent="1" source="P_fY0GC87L_X9JQZBcob-18" target="P_fY0GC87L_X9JQZBcob-22" edge="1">
          <mxGeometry relative="1" as="geometry" />
        </mxCell>
        <mxCell id="P_fY0GC87L_X9JQZBcob-18" value="Botão &quot;esqueci a senha&quot;" style="ellipse;whiteSpace=wrap;html=1;" parent="1" vertex="1">
          <mxGeometry x="240" y="144" width="109" height="54" as="geometry" />
        </mxCell>
        <mxCell id="P_fY0GC87L_X9JQZBcob-26" style="edgeStyle=orthogonalEdgeStyle;rounded=0;orthogonalLoop=1;jettySize=auto;html=1;entryX=0.5;entryY=0;entryDx=0;entryDy=0;fontSize=12;startSize=8;endSize=8;endArrow=none;startFill=1;startArrow=classic;" parent="1" source="P_fY0GC87L_X9JQZBcob-22" target="P_fY0GC87L_X9JQZBcob-24" edge="1">
          <mxGeometry relative="1" as="geometry" />
        </mxCell>
        <mxCell id="P_fY0GC87L_X9JQZBcob-28" style="edgeStyle=orthogonalEdgeStyle;rounded=0;orthogonalLoop=1;jettySize=auto;html=1;entryX=0.5;entryY=0;entryDx=0;entryDy=0;fontSize=12;startSize=8;endSize=8;startArrow=classic;startFill=1;endArrow=none;" parent="1" source="P_fY0GC87L_X9JQZBcob-22" target="P_fY0GC87L_X9JQZBcob-25" edge="1">
          <mxGeometry relative="1" as="geometry" />
        </mxCell>
        <mxCell id="P_fY0GC87L_X9JQZBcob-22" value="Mandar código de recup. senha" style="ellipse;whiteSpace=wrap;html=1;" parent="1" vertex="1">
          <mxGeometry x="241.5" y="224" width="106" height="62" as="geometry" />
        </mxCell>
        <mxCell id="P_fY0GC87L_X9JQZBcob-24" value="e-mail corporativo" style="ellipse;whiteSpace=wrap;html=1;" parent="1" vertex="1">
          <mxGeometry x="181" y="334" width="106" height="62" as="geometry" />
        </mxCell>
        <mxCell id="P_fY0GC87L_X9JQZBcob-25" value="n. de celular registrado no B.D." style="ellipse;whiteSpace=wrap;html=1;" parent="1" vertex="1">
          <mxGeometry x="305" y="334" width="106" height="62" as="geometry" />
        </mxCell>
        <mxCell id="P_fY0GC87L_X9JQZBcob-30" style="edgeStyle=orthogonalEdgeStyle;rounded=0;orthogonalLoop=1;jettySize=auto;html=1;entryX=0.5;entryY=1;entryDx=0;entryDy=0;fontSize=12;startSize=8;endSize=8;endArrow=none;startFill=0;exitX=0.5;exitY=0;exitDx=0;exitDy=0;" parent="1" source="P_fY0GC87L_X9JQZBcob-29" target="P_fY0GC87L_X9JQZBcob-24" edge="1">
          <mxGeometry relative="1" as="geometry">
            <mxPoint x="251" y="440" as="sourcePoint" />
            <mxPoint x="190" y="396" as="targetPoint" />
          </mxGeometry>
        </mxCell>
        <mxCell id="P_fY0GC87L_X9JQZBcob-31" style="edgeStyle=orthogonalEdgeStyle;rounded=0;orthogonalLoop=1;jettySize=auto;html=1;entryX=0.5;entryY=1;entryDx=0;entryDy=0;fontSize=12;startSize=8;endSize=8;endArrow=none;startFill=0;exitX=0.5;exitY=0;exitDx=0;exitDy=0;" parent="1" source="P_fY0GC87L_X9JQZBcob-29" target="P_fY0GC87L_X9JQZBcob-25" edge="1">
          <mxGeometry relative="1" as="geometry">
            <mxPoint x="251" y="440" as="sourcePoint" />
            <mxPoint x="314" y="396" as="targetPoint" />
          </mxGeometry>
        </mxCell>
        <mxCell id="P_fY0GC87L_X9JQZBcob-47" style="edgeStyle=orthogonalEdgeStyle;rounded=0;orthogonalLoop=1;jettySize=auto;html=1;entryX=0;entryY=0.5;entryDx=0;entryDy=0;fontSize=12;startSize=8;endSize=8;endArrow=classic;startFill=0;endFill=1;" parent="1" source="P_fY0GC87L_X9JQZBcob-29" target="P_fY0GC87L_X9JQZBcob-45" edge="1">
          <mxGeometry relative="1" as="geometry" />
        </mxCell>
        <mxCell id="P_fY0GC87L_X9JQZBcob-48" style="edgeStyle=orthogonalEdgeStyle;rounded=0;orthogonalLoop=1;jettySize=auto;html=1;entryX=0;entryY=0.5;entryDx=0;entryDy=0;fontSize=12;startSize=8;endSize=8;endArrow=classic;startFill=0;endFill=1;" parent="1" source="P_fY0GC87L_X9JQZBcob-29" target="P_fY0GC87L_X9JQZBcob-46" edge="1">
          <mxGeometry relative="1" as="geometry" />
        </mxCell>
        <mxCell id="P_fY0GC87L_X9JQZBcob-29" value="Verificar código" style="ellipse;whiteSpace=wrap;html=1;" parent="1" vertex="1">
          <mxGeometry x="235" y="462" width="120" height="51" as="geometry" />
        </mxCell>
        <mxCell id="P_fY0GC87L_X9JQZBcob-32" style="edgeStyle=none;curved=1;rounded=0;orthogonalLoop=1;jettySize=auto;html=1;exitX=0.5;exitY=0;exitDx=0;exitDy=0;fontSize=12;startSize=8;endSize=8;" parent="1" source="P_fY0GC87L_X9JQZBcob-29" target="P_fY0GC87L_X9JQZBcob-29" edge="1">
          <mxGeometry relative="1" as="geometry" />
        </mxCell>
        <mxCell id="P_fY0GC87L_X9JQZBcob-36" style="edgeStyle=orthogonalEdgeStyle;rounded=0;orthogonalLoop=1;jettySize=auto;html=1;entryX=0.5;entryY=1;entryDx=0;entryDy=0;fontSize=12;startSize=8;endSize=8;" parent="1" source="P_fY0GC87L_X9JQZBcob-34" target="P_fY0GC87L_X9JQZBcob-29" edge="1">
          <mxGeometry relative="1" as="geometry" />
        </mxCell>
        <mxCell id="P_fY0GC87L_X9JQZBcob-34" value="Solicitar mudança de senha ao nível de usuário maior" style="ellipse;whiteSpace=wrap;html=1;" parent="1" vertex="1">
          <mxGeometry x="204.25" y="551" width="181.5" height="80" as="geometry" />
        </mxCell>
        <mxCell id="P_fY0GC87L_X9JQZBcob-39" style="edgeStyle=orthogonalEdgeStyle;rounded=0;orthogonalLoop=1;jettySize=auto;html=1;entryX=0.5;entryY=1;entryDx=0;entryDy=0;fontSize=12;startSize=8;endSize=8;dashed=1;dashPattern=8 8;" parent="1" source="P_fY0GC87L_X9JQZBcob-37" target="P_fY0GC87L_X9JQZBcob-34" edge="1">
          <mxGeometry relative="1" as="geometry" />
        </mxCell>
        <mxCell id="P_fY0GC87L_X9JQZBcob-37" value="Senha alterada" style="ellipse;whiteSpace=wrap;html=1;" parent="1" vertex="1">
          <mxGeometry x="268" y="669" width="110" height="32" as="geometry" />
        </mxCell>
        <mxCell id="P_fY0GC87L_X9JQZBcob-42" style="edgeStyle=none;curved=1;rounded=0;orthogonalLoop=1;jettySize=auto;html=1;entryX=0;entryY=0.5;entryDx=0;entryDy=0;fontSize=12;startSize=8;endSize=8;endArrow=none;startFill=0;" parent="1" source="P_fY0GC87L_X9JQZBcob-40" target="P_fY0GC87L_X9JQZBcob-37" edge="1">
          <mxGeometry relative="1" as="geometry" />
        </mxCell>
        <mxCell id="P_fY0GC87L_X9JQZBcob-40" value="Superv." style="ellipse;whiteSpace=wrap;html=1;" parent="1" vertex="1">
          <mxGeometry x="137" y="669" width="59" height="32" as="geometry" />
        </mxCell>
        <mxCell id="P_fY0GC87L_X9JQZBcob-44" style="edgeStyle=orthogonalEdgeStyle;rounded=0;orthogonalLoop=1;jettySize=auto;html=1;entryX=0;entryY=0.5;entryDx=0;entryDy=0;fontSize=12;startSize=8;endSize=8;endArrow=none;startFill=0;" parent="1" source="P_fY0GC87L_X9JQZBcob-41" target="P_fY0GC87L_X9JQZBcob-37" edge="1">
          <mxGeometry relative="1" as="geometry" />
        </mxCell>
        <mxCell id="P_fY0GC87L_X9JQZBcob-41" value="Admin" style="ellipse;whiteSpace=wrap;html=1;" parent="1" vertex="1">
          <mxGeometry x="137" y="706" width="59" height="32" as="geometry" />
        </mxCell>
        <mxCell id="P_fY0GC87L_X9JQZBcob-56" style="edgeStyle=orthogonalEdgeStyle;rounded=0;orthogonalLoop=1;jettySize=auto;html=1;entryX=0;entryY=0.5;entryDx=0;entryDy=0;fontSize=12;startSize=8;endSize=8;" parent="1" source="P_fY0GC87L_X9JQZBcob-45" target="P_fY0GC87L_X9JQZBcob-54" edge="1">
          <mxGeometry relative="1" as="geometry" />
        </mxCell>
        <mxCell id="P_fY0GC87L_X9JQZBcob-45" value="Superv." style="ellipse;whiteSpace=wrap;html=1;" parent="1" vertex="1">
          <mxGeometry x="420" y="456" width="59" height="32" as="geometry" />
        </mxCell>
        <mxCell id="P_fY0GC87L_X9JQZBcob-52" style="edgeStyle=orthogonalEdgeStyle;rounded=0;orthogonalLoop=1;jettySize=auto;html=1;entryX=0.5;entryY=0;entryDx=0;entryDy=0;fontSize=12;startSize=8;endSize=8;" parent="1" source="P_fY0GC87L_X9JQZBcob-46" target="P_fY0GC87L_X9JQZBcob-49" edge="1">
          <mxGeometry relative="1" as="geometry" />
        </mxCell>
        <mxCell id="P_fY0GC87L_X9JQZBcob-55" value="" style="edgeStyle=orthogonalEdgeStyle;rounded=0;orthogonalLoop=1;jettySize=auto;html=1;fontSize=12;startSize=8;endSize=8;" parent="1" source="P_fY0GC87L_X9JQZBcob-46" target="P_fY0GC87L_X9JQZBcob-54" edge="1">
          <mxGeometry relative="1" as="geometry">
            <Array as="points">
              <mxPoint x="512" y="509" />
              <mxPoint x="512" y="566" />
            </Array>
          </mxGeometry>
        </mxCell>
        <mxCell id="P_fY0GC87L_X9JQZBcob-46" value="Admin" style="ellipse;whiteSpace=wrap;html=1;" parent="1" vertex="1">
          <mxGeometry x="420" y="493" width="59" height="32" as="geometry" />
        </mxCell>
        <mxCell id="P_fY0GC87L_X9JQZBcob-53" style="edgeStyle=orthogonalEdgeStyle;rounded=0;orthogonalLoop=1;jettySize=auto;html=1;entryX=1;entryY=0.5;entryDx=0;entryDy=0;fontSize=12;startSize=8;endSize=8;" parent="1" source="P_fY0GC87L_X9JQZBcob-49" target="P_fY0GC87L_X9JQZBcob-37" edge="1">
          <mxGeometry relative="1" as="geometry" />
        </mxCell>
        <mxCell id="P_fY0GC87L_X9JQZBcob-49" value="Alterar própria senha" style="ellipse;whiteSpace=wrap;html=1;" parent="1" vertex="1">
          <mxGeometry x="436" y="589" width="95" height="67" as="geometry" />
        </mxCell>
        <mxCell id="P_fY0GC87L_X9JQZBcob-54" value="Verificar código" style="ellipse;whiteSpace=wrap;html=1;" parent="1" vertex="1">
          <mxGeometry x="545" y="540" width="120" height="51" as="geometry" />
        </mxCell>
        <mxCell id="P_fY0GC87L_X9JQZBcob-60" style="edgeStyle=orthogonalEdgeStyle;rounded=0;orthogonalLoop=1;jettySize=auto;html=1;entryX=0;entryY=0.5;entryDx=0;entryDy=0;fontSize=12;startSize=8;endSize=8;" parent="1" source="P_fY0GC87L_X9JQZBcob-57" target="P_fY0GC87L_X9JQZBcob-59" edge="1">
          <mxGeometry relative="1" as="geometry">
            <Array as="points">
              <mxPoint x="387" y="174" />
            </Array>
          </mxGeometry>
        </mxCell>
        <mxCell id="P_fY0GC87L_X9JQZBcob-69" style="edgeStyle=orthogonalEdgeStyle;rounded=0;orthogonalLoop=1;jettySize=auto;html=1;entryX=0;entryY=0.5;entryDx=0;entryDy=0;fontSize=12;startSize=8;endSize=8;dashed=1;dashPattern=8 8;" parent="1" source="P_fY0GC87L_X9JQZBcob-57" target="P_fY0GC87L_X9JQZBcob-67" edge="1">
          <mxGeometry relative="1" as="geometry">
            <Array as="points">
              <mxPoint x="370" y="238" />
              <mxPoint x="436" y="238" />
              <mxPoint x="436" y="343" />
            </Array>
          </mxGeometry>
        </mxCell>
        <mxCell id="P_fY0GC87L_X9JQZBcob-70" style="edgeStyle=orthogonalEdgeStyle;rounded=0;orthogonalLoop=1;jettySize=auto;html=1;entryX=0;entryY=0.5;entryDx=0;entryDy=0;fontSize=12;startSize=8;endSize=8;dashed=1;dashPattern=8 8;" parent="1" source="P_fY0GC87L_X9JQZBcob-57" target="P_fY0GC87L_X9JQZBcob-68" edge="1">
          <mxGeometry relative="1" as="geometry">
            <Array as="points">
              <mxPoint x="370" y="238" />
              <mxPoint x="436" y="238" />
              <mxPoint x="436" y="380" />
            </Array>
          </mxGeometry>
        </mxCell>
        <mxCell id="P_fY0GC87L_X9JQZBcob-73" style="edgeStyle=orthogonalEdgeStyle;rounded=0;orthogonalLoop=1;jettySize=auto;html=1;entryX=0;entryY=0.5;entryDx=0;entryDy=0;fontSize=12;startSize=8;endSize=8;" parent="1" source="P_fY0GC87L_X9JQZBcob-57" target="P_fY0GC87L_X9JQZBcob-65" edge="1">
          <mxGeometry relative="1" as="geometry">
            <Array as="points">
              <mxPoint x="387" y="215" />
              <mxPoint x="451" y="215" />
              <mxPoint x="451" y="246" />
            </Array>
          </mxGeometry>
        </mxCell>
        <mxCell id="P_fY0GC87L_X9JQZBcob-57" value="Verificar credenciais" style="ellipse;whiteSpace=wrap;html=1;" parent="1" vertex="1">
          <mxGeometry x="332" y="53" width="109" height="54" as="geometry" />
        </mxCell>
        <mxCell id="P_fY0GC87L_X9JQZBcob-59" value="Listar chamadas" style="ellipse;whiteSpace=wrap;html=1;" parent="1" vertex="1">
          <mxGeometry x="411" y="147" width="109" height="54" as="geometry" />
        </mxCell>
        <mxCell id="P_fY0GC87L_X9JQZBcob-63" style="edgeStyle=none;curved=1;rounded=0;orthogonalLoop=1;jettySize=auto;html=1;entryX=1;entryY=0.5;entryDx=0;entryDy=0;fontSize=12;startSize=8;endSize=8;" parent="1" source="P_fY0GC87L_X9JQZBcob-61" target="P_fY0GC87L_X9JQZBcob-57" edge="1">
          <mxGeometry relative="1" as="geometry" />
        </mxCell>
        <mxCell id="P_fY0GC87L_X9JQZBcob-64" style="edgeStyle=orthogonalEdgeStyle;rounded=0;orthogonalLoop=1;jettySize=auto;html=1;entryX=1;entryY=0.5;entryDx=0;entryDy=0;fontSize=12;startSize=8;endSize=8;" parent="1" source="P_fY0GC87L_X9JQZBcob-61" target="P_fY0GC87L_X9JQZBcob-59" edge="1">
          <mxGeometry relative="1" as="geometry">
            <Array as="points">
              <mxPoint x="586" y="80" />
              <mxPoint x="586" y="174" />
            </Array>
          </mxGeometry>
        </mxCell>
        <mxCell id="P_fY0GC87L_X9JQZBcob-61" value="" style="shape=datastore;whiteSpace=wrap;html=1;" parent="1" vertex="1">
          <mxGeometry x="768" y="50" width="60" height="60" as="geometry" />
        </mxCell>
        <mxCell id="P_fY0GC87L_X9JQZBcob-62" value="B.D. Replicado" style="text;html=1;align=center;verticalAlign=middle;whiteSpace=wrap;rounded=0;" parent="1" vertex="1">
          <mxGeometry x="768" y="117" width="60" height="30" as="geometry" />
        </mxCell>
        <mxCell id="P_fY0GC87L_X9JQZBcob-65" value="Ver próprias gravações" style="ellipse;whiteSpace=wrap;html=1;" parent="1" vertex="1">
          <mxGeometry x="471" y="219" width="109" height="54" as="geometry" />
        </mxCell>
        <mxCell id="P_fY0GC87L_X9JQZBcob-66" value="Ver próprias gravações" style="ellipse;whiteSpace=wrap;html=1;" parent="1" vertex="1">
          <mxGeometry x="606" y="338" width="109" height="54" as="geometry" />
        </mxCell>
        <mxCell id="P_fY0GC87L_X9JQZBcob-74" style="edgeStyle=orthogonalEdgeStyle;rounded=0;orthogonalLoop=1;jettySize=auto;html=1;entryX=0;entryY=0.5;entryDx=0;entryDy=0;fontSize=12;startSize=8;endSize=8;" parent="1" source="P_fY0GC87L_X9JQZBcob-67" target="P_fY0GC87L_X9JQZBcob-66" edge="1">
          <mxGeometry relative="1" as="geometry" />
        </mxCell>
        <mxCell id="P_fY0GC87L_X9JQZBcob-77" style="edgeStyle=orthogonalEdgeStyle;rounded=0;orthogonalLoop=1;jettySize=auto;html=1;entryX=0;entryY=0.5;entryDx=0;entryDy=0;fontSize=12;startSize=8;endSize=8;" parent="1" source="P_fY0GC87L_X9JQZBcob-67" target="P_fY0GC87L_X9JQZBcob-76" edge="1">
          <mxGeometry relative="1" as="geometry" />
        </mxCell>
        <mxCell id="P_fY0GC87L_X9JQZBcob-67" value="Superv." style="ellipse;whiteSpace=wrap;html=1;" parent="1" vertex="1">
          <mxGeometry x="474" y="327" width="59" height="32" as="geometry" />
        </mxCell>
        <mxCell id="P_fY0GC87L_X9JQZBcob-75" style="edgeStyle=orthogonalEdgeStyle;rounded=0;orthogonalLoop=1;jettySize=auto;html=1;entryX=0;entryY=0.5;entryDx=0;entryDy=0;fontSize=12;startSize=8;endSize=8;" parent="1" source="P_fY0GC87L_X9JQZBcob-68" target="P_fY0GC87L_X9JQZBcob-66" edge="1">
          <mxGeometry relative="1" as="geometry" />
        </mxCell>
        <mxCell id="P_fY0GC87L_X9JQZBcob-78" style="edgeStyle=orthogonalEdgeStyle;rounded=0;orthogonalLoop=1;jettySize=auto;html=1;entryX=0;entryY=0.5;entryDx=0;entryDy=0;fontSize=12;startSize=8;endSize=8;" parent="1" source="P_fY0GC87L_X9JQZBcob-68" target="P_fY0GC87L_X9JQZBcob-76" edge="1">
          <mxGeometry relative="1" as="geometry" />
        </mxCell>
        <mxCell id="P_fY0GC87L_X9JQZBcob-68" value="Admin" style="ellipse;whiteSpace=wrap;html=1;" parent="1" vertex="1">
          <mxGeometry x="474" y="364" width="59" height="32" as="geometry" />
        </mxCell>
        <mxCell id="P_fY0GC87L_X9JQZBcob-76" value="Gerenciar contatos e agendas" style="ellipse;whiteSpace=wrap;html=1;" parent="1" vertex="1">
          <mxGeometry x="606" y="411" width="140" height="54" as="geometry" />
        </mxCell>
        <mxCell id="P_fY0GC87L_X9JQZBcob-79" value="Admin" style="ellipse;whiteSpace=wrap;html=1;" parent="1" vertex="1">
          <mxGeometry x="738" y="471.5" width="59" height="32" as="geometry" />
        </mxCell>
      </root>
    </mxGraphModel>
  </diagram>
  <diagram id="Uv18x2N-6U6vPLgEKrXZ" name="DER 2">
    <mxGraphModel dx="878" dy="618" grid="0" gridSize="10" guides="1" tooltips="1" connect="1" arrows="1" fold="1" page="0" pageScale="1" pageWidth="3300" pageHeight="2339" math="0" shadow="0">
      <root>
        <mxCell id="0" />
        <mxCell id="1" parent="0" />
      </root>
    </mxGraphModel>
  </diagram>
</mxfile>
